HIERARCHY
ROOT Hips
{
	OFFSET 0.000000 0.000000 0.000000
	CHANNELS 6 Xposition Yposition Zposition Zrotation Yrotation Xrotation 
	JOINT LHipJoint
	{
		OFFSET 0.000000 0.000000 0.000000
		CHANNELS 3 Zrotation Yrotation Xrotation
		JOINT LeftUpLeg
		{
			OFFSET 1.363060 -1.794630 0.839290
			CHANNELS 3 Zrotation Yrotation Xrotation
			JOINT LeftLeg
			{
				OFFSET 2.448110 -6.726130 0.000000
				CHANNELS 3 Zrotation Yrotation Xrotation
				JOINT LeftFoot
				{
					OFFSET 2.562200 -7.039590 0.000000
					CHANNELS 3 Zrotation Yrotation Xrotation
					JOINT LeftToeBase
					{
						OFFSET 0.157640 -0.433110 2.322550
						CHANNELS 3 Zrotation Yrotation Xrotation
						End Site
						{
							OFFSET 0.000000 0.000000 0.000000
						}
					}
				}
			}
		}
	}
	JOINT RHipJoint
	{
		OFFSET 0.000000 0.000000 0.000000
		CHANNELS 3 Zrotation Yrotation Xrotation
		JOINT RightUpLeg
		{
			OFFSET -1.305520 -1.794630 0.839290
			CHANNELS 3 Zrotation Yrotation Xrotation
			JOINT RightLeg
			{
				OFFSET -2.542530 -6.985550 0.000000
				CHANNELS 3 Zrotation Yrotation Xrotation
				JOINT RightFoot
				{
					OFFSET -2.568260 -7.056230 0.000000
					CHANNELS 3 Zrotation Yrotation Xrotation
					JOINT RightToeBase
					{
						OFFSET -0.164730 -0.452590 2.363150
						CHANNELS 3 Zrotation Yrotation Xrotation
						End Site
						{
							OFFSET 0.000000 0.000000 0.000000
						}
					}
				}
			}
		}
	}
}
MOTION
Frames: 33
Frame Time: 0.008333
18.707881 16.124930 2.204893 75.422061 -88.115828 -16.046559 -7.997574 -0.767671 4.371504 -4.306852 -13.803680 -77.747187 -1.946634 -0.113880 29.086483 4.741878 14.634868 -17.309814 -1.171100 -0.000000 -38.434600 8.328012 0.981946 5.135995 1.107245 8.760007 -78.823397 2.398785 -1.154485 30.010967 -3.941079 -9.438809 -16.733376 0.263000 -0.000001 -57.133300
18.695140 15.998991 2.207206 79.718862 -87.856970 -19.161190 -7.945184 -0.807610 4.524626 -3.895769 -14.609685 -80.526703 -1.810339 0.172861 31.985431 4.971406 14.917964 -18.644287 -1.556600 0.000001 -37.505600 8.335402 1.068037 5.307513 0.160150 8.942178 -81.940550 2.157802 -1.611888 33.502743 -4.137407 -9.652144 -18.129791 0.555300 0.000000 -56.420400
18.682281 15.863675 2.209248 83.446229 -87.581708 -21.767044 -7.896006 -0.848230 4.663982 -3.497531 -15.390172 -83.299887 -1.659130 0.479502 35.003681 5.195731 15.205127 -19.984095 -1.961000 -0.000000 -36.540200 8.349075 1.188661 5.461842 -0.821752 9.047944 -85.022251 1.889579 -2.073900 37.111679 -4.328655 -9.894861 -19.524643 0.864300 0.000000 -55.690900
18.669251 15.719627 2.211745 86.285413 -87.332406 -23.557036 -7.852115 -0.899591 4.777329 -3.090174 -16.096275 -86.053309 -1.490229 0.807615 38.148928 5.408149 15.487503 -21.317334 -2.380000 0.000000 -35.603300 8.361622 1.335881 5.597130 -1.787401 9.122158 -88.004254 1.601655 -2.523663 40.751898 -4.517011 -10.184078 -20.900878 1.189100 -0.000000 -54.908800
18.655897 15.567076 2.214700 88.354290 -87.102793 -24.654319 -7.811977 -0.965474 4.865213 -2.675223 -16.738430 -88.766596 -1.301950 1.150827 41.399009 5.608675 15.780855 -22.625711 -2.809000 0.000000 -34.728600 8.373053 1.506874 5.712404 -2.725700 9.157261 -90.875880 1.297522 -2.960156 44.414135 -4.698680 -10.512671 -22.251268 1.529299 0.000000 -54.099300
18.642226 15.406563 2.218206 89.700215 -86.895588 -25.113346 -7.775072 -1.050146 4.926622 -2.251062 -17.315014 -91.418141 -1.093557 1.503704 44.732952 5.796000 16.093417 -23.895879 -3.245101 0.000000 -33.949800 8.381856 1.696381 5.806413 -3.616321 9.158365 -93.616769 0.982044 -3.380488 48.073218 -4.871165 -10.875565 -23.569193 1.884300 0.000000 -53.277300
18.628124 15.238879 2.222378 90.360423 -86.716594 -24.976855 -7.740813 -1.157346 4.959287 -1.817182 -17.821135 -93.987465 -0.865436 1.861426 48.129806 5.968195 16.428178 -25.118671 -3.686000 -0.000000 -33.302000 8.386458 1.899066 5.875965 -4.436638 9.134210 -96.206802 0.660689 -3.782950 51.703031 -5.032289 -11.264962 -24.853251 2.254000 -0.000000 -52.441001
18.613071 15.064620 2.226890 90.459817 -86.542490 -24.368806 -7.705879 -1.282366 4.971046 -1.385013 -18.288819 -96.455344 -0.619044 2.214854 51.550904 6.128264 16.798314 -26.288548 -4.132500 0.000000 -32.782900 8.391162 2.115341 5.924025 -5.196135 9.063310 -98.651607 0.333879 -4.171082 55.304985 -5.178950 -11.670999 -26.099658 2.636000 0.000000 -51.644900
18.596906 14.885069 2.232030 89.976931 -86.390646 -23.273965 -7.671199 -1.428404 4.957544 -0.952852 -18.696561 -98.802768 -0.357080 2.562601 54.981257 6.271986 17.189970 -27.409241 -4.583800 0.000000 -32.414100 8.393440 2.337467 5.945819 -5.860558 8.969565 -100.923127 0.007967 -4.543056 58.842500 -5.311037 -12.085876 -27.313503 3.030600 0.000000 -50.871800
18.579492 14.701364 2.237580 89.010681 -86.246694 -21.792615 -7.634694 -1.589898 4.923696 -0.533862 -19.063935 -101.013876 -0.082831 2.899567 58.390154 6.400487 17.601600 -28.485493 -5.041600 -0.000000 -32.188300 8.396666 2.564984 5.942717 -6.432766 8.841861 -103.021944 -0.316261 -4.902308 62.309207 -5.427146 -12.499159 -28.497553 3.435800 -0.000001 -50.156000
18.560412 14.514723 2.243323 87.669373 -86.101661 -20.030997 -7.595661 -1.761636 4.872643 -0.140775 -19.403039 -103.075448 0.199827 3.222882 61.752643 6.513840 18.024026 -29.527429 -5.507100 -0.000000 -32.092900 8.403295 2.796561 5.915825 -6.912897 8.675205 -104.945870 -0.638011 -5.251249 65.694366 -5.526943 -12.901801 -29.656308 3.849900 -0.000000 -49.521399
18.539240 14.326467 2.249146 86.069598 -85.947705 -18.104175 -7.554251 -1.938225 4.807627 0.213499 -19.724433 -104.976629 0.487078 3.531000 65.046787 6.612225 18.446308 -30.546259 -5.981400 -0.000000 -32.111800 8.415377 3.030530 5.867162 -7.302687 8.465642 -106.693322 -0.956973 -5.591760 68.986469 -5.610722 -13.285930 -30.793480 4.270300 -0.000000 -48.995901
18.515869 14.138050 2.254920 84.326870 -85.779808 -16.126189 -7.511463 -2.114994 4.731502 0.517331 -20.035529 -106.709412 0.775424 3.823616 68.254641 6.695845 18.856589 -31.553302 -6.464500 0.000000 -32.231700 8.434182 3.264721 5.799115 -7.604659 8.211834 -108.264050 -1.273286 -5.925033 72.174542 -5.679385 -13.645741 -31.910439 4.694200 -0.000000 -48.611000
18.489876 13.950862 2.260518 82.569450 -85.592968 -14.220575 -7.468725 -2.287638 4.646971 0.759176 -20.344228 -108.268751 1.061695 4.100942 71.360186 6.765325 19.244501 -32.557015 -6.955000 0.000000 -32.438400 8.460672 3.496976 5.714856 -7.825618 7.912209 -109.660897 -1.587448 -6.251457 75.248660 -5.733954 -13.976017 -33.006890 5.117700 0.000000 -48.396100
18.460969 13.766288 2.265863 80.896647 -85.386820 -12.481984 -7.428122 -2.453215 4.556738 0.930597 -20.653108 -109.651318 1.343373 4.363841 74.350689 6.821483 19.601967 -33.562077 -7.450700 -0.000000 -32.719500 8.495029 3.724049 5.618064 -7.971431 7.570042 -110.886459 -1.899824 -6.570232 78.198332 -5.775945 -14.274254 -34.078917 5.536499 -0.000000 -48.375200
18.429140 13.585835 2.270923 79.371068 -85.164018 -10.970226 -7.391514 -2.610097 4.462860 1.026975 -20.961603 -110.857093 1.618737 4.613412 77.215903 6.865332 19.924156 -34.567275 -7.947100 0.000000 -33.069300 8.536648 3.942674 5.511849 -8.048255 7.191853 -111.944920 -2.210444 -6.879866 81.013943 -5.806780 -14.538857 -35.119970 5.945700 0.000000 -48.566900
18.394274 13.410675 2.275693 78.023228 -84.931741 -9.707646 -7.360890 -2.756745 4.368041 1.047955 -21.264561 -111.888172 1.886830 4.850456 79.947422 6.898492 20.211162 -35.566445 -8.439400 0.000000 -33.486200 8.584917 4.149683 5.399934 -8.061483 6.788954 -112.841386 -2.518618 -7.177939 83.685563 -5.828052 -14.769794 -36.121475 6.340200 -0.000000 -48.978400
18.356448 13.242106 2.280253 76.844111 -84.699853 -8.680214 -7.337832 -2.892855 4.274263 0.997594 -21.553431 -112.749106 2.147309 5.075624 82.538279 6.922536 20.466107 -36.548122 -8.922000 0.000000 -33.971200 8.638346 4.342205 5.284831 -8.015331 6.375683 -113.581586 -2.823066 -7.461794 86.204590 -5.841315 -14.968732 -37.073383 6.715300 0.000000 -49.605300
18.315343 13.081216 2.284641 75.809257 -84.479018 -7.857347 -7.323714 -3.018273 4.184063 0.883195 -21.817922 -113.445865 2.400248 5.289094 84.982671 6.939429 20.696158 -37.498049 -9.389600 0.000001 -34.527100 8.695398 4.517699 5.169373 -7.913977 5.968646 -114.171179 -3.121879 -7.728366 88.563653 -5.848001 -15.138013 -37.966227 7.066799 -0.000000 -50.429700
18.271460 12.929016 2.288952 74.874987 -84.281331 -7.187021 -7.319371 -3.133606 4.098917 0.716916 -22.046328 -113.986647 2.645949 5.490328 87.275514 6.951164 20.910771 -38.401263 -9.838400 -0.000000 -35.154300 8.754137 4.674605 5.054501 -7.759840 5.585072 -114.616307 -3.412395 -7.975003 90.756611 -5.849612 -15.281477 -38.792254 7.392000 -0.000000 -51.421799
18.224587 12.786396 2.293269 73.994199 -84.116684 -6.616974 -7.325329 -3.239626 4.020604 0.511665 -22.227749 -114.379080 2.884517 5.678582 89.412846 6.959571 21.119998 -39.244171 -10.266000 -0.000000 -35.848800 8.812790 4.811748 4.941484 -7.556064 5.240532 -114.921641 -3.691722 -8.199289 92.779583 -5.847511 -15.403512 -39.546556 7.689700 -0.000000 -52.542200
18.175050 12.654152 2.297597 73.126875 -83.992030 -6.101664 -7.341680 -3.337678 3.949845 0.280819 -22.353638 -114.629361 3.115469 5.852625 91.390789 6.966370 21.333631 -40.017447 -10.672301 0.000000 -36.599500 8.869674 4.928613 4.830335 -7.305807 4.947360 -115.090747 -3.956720 -8.399459 94.630770 -5.843093 -15.509078 -40.228978 7.960900 0.000000 -53.741101
18.122963 12.532882 2.301969 72.230883 -83.911703 -5.591516 -7.368124 -3.429243 3.886972 0.039150 -22.418566 -114.745171 3.337681 6.010995 93.206359 6.972934 21.558524 -40.717967 -11.058699 -0.000000 -37.390000 8.923435 5.025443 4.720368 -7.012687 4.713588 -115.127235 -4.204156 -8.574578 96.309804 -5.837698 -15.603160 -40.842722 8.207700 -0.000001 -54.973000
18.068490 12.423299 2.306060 71.316333 -83.871104 -5.100818 -7.404338 -3.515195 3.832593 -0.209365 -22.424271 -114.723738 3.548688 6.152790 94.856852 6.980353 21.798683 -41.349489 -11.428800 0.000000 -38.187600 8.973985 5.102411 4.612777 -6.686080 4.537783 -115.029191 -4.431706 -8.723970 97.821435 -5.832408 -15.689845 -41.398634 8.434500 0.000000 -56.164700
18.011611 12.325684 2.309815 70.359950 -83.869294 -4.598264 -7.450046 -3.595733 3.788259 -0.452679 -22.370827 -114.571731 3.746040 6.277134 96.341557 6.989268 22.053256 -41.921529 -11.785900 -0.000000 -38.964500 9.021398 5.160408 4.508568 -6.331767 4.420718 -114.799510 -4.636621 -8.847566 99.168372 -5.828693 -15.773969 -41.906954 8.646100 0.000001 -57.287500
17.952146 12.240532 2.312820 69.402839 -83.892684 -4.123538 -7.504423 -3.674158 3.749941 -0.692396 -22.267700 -114.284175 3.925366 6.383632 97.658490 6.999652 22.317117 -42.449596 -12.134200 -0.000000 -39.680601 9.065795 5.199732 4.405451 -5.962967 4.349544 -114.437266 -4.817230 -8.946586 100.356764 -5.827210 -15.857358 -42.383695 8.847600 -0.000000 -58.275799
17.890302 12.168222 2.314918 68.450619 -83.945825 -3.688040 -7.566372 -3.742104 3.721313 -0.926183 -22.117005 -113.858961 4.083895 6.472264 98.809071 7.011348 22.582450 -42.950853 -12.476600 0.000000 -40.308200 9.109908 5.227406 4.306664 -5.586312 4.321264 -113.936669 -4.971118 -9.021241 101.391834 -5.828464 -15.941047 -42.841416 9.043200 0.000000 -59.114800
17.825581 12.108707 2.315739 67.566655 -84.019487 -3.342685 -7.634797 -3.798550 3.698867 -1.155234 -21.929766 -113.303337 4.218325 6.543982 99.795038 7.024035 22.839210 -43.441113 -12.814500 -0.000000 -40.827300 9.154672 5.246684 4.211029 -5.216303 4.323029 -113.308124 -5.097425 -9.072843 102.281087 -5.832257 -16.023684 -43.290573 9.235000 -0.000001 -59.789200
17.757659 12.062005 2.315210 66.773377 -84.101432 -3.114376 -7.710053 -3.844379 3.686910 -1.382207 -21.717461 -112.614199 4.325528 6.598371 100.620169 7.036329 23.076165 -43.930858 -13.146299 0.000000 -41.236800 9.203047 5.253381 4.124234 -4.860040 4.342567 -112.552701 -5.196046 -9.103277 103.029863 -5.837962 -16.101607 -43.735331 9.422600 -0.000000 -60.308800
17.685925 12.028087 2.313212 66.110740 -84.185729 -3.041295 -7.791730 -3.877534 3.687630 -1.609856 -21.488426 -111.795463 4.403747 6.636264 101.287830 7.047055 23.284538 -44.422289 -13.467700 0.000000 -41.558200 9.257008 5.247256 4.050153 -4.525159 4.370725 -111.677647 -5.266818 -9.113957 103.642121 -5.844036 -16.169632 -44.172375 9.602001 -0.000000 -60.706100
17.610323 12.006943 2.309710 65.615700 -84.271094 -3.155680 -7.879021 -3.896050 3.700107 -1.840723 -21.246965 -110.853112 4.452268 6.658474 101.800643 7.054643 23.457942 -44.906556 -13.771300 0.000000 -41.833600 9.317362 5.229001 3.989417 -4.215403 4.402944 -110.690766 -5.309471 -9.105995 104.119063 -5.848027 -16.221056 -44.589551 9.766300 0.000000 -61.031299
17.530000 11.998447 2.304682 65.320176 -84.355784 -3.481553 -7.971546 -3.898161 3.726032 -2.076661 -20.996590 -109.796603 4.471169 6.665501 102.159218 7.057780 23.593437 -45.365498 -14.047200 0.000000 -42.120399 9.384782 5.196732 3.945417 -3.932285 4.436770 -109.603835 -5.323732 -9.080011 104.458477 -5.847162 -16.248046 -44.968333 9.905600 0.000000 -61.344300
17.444741 12.002875 2.298284 65.217847 -84.445756 -4.008263 -8.068297 -3.882550 3.762000 -2.317842 -20.732992 -108.631582 4.461358 6.657329 102.362418 7.054639 23.691730 -45.771795 -14.284000 0.000000 -42.481800 9.458098 5.150771 3.915420 -3.669521 4.475816 -108.421602 -5.308481 -9.036407 104.653335 -5.838349 -16.243318 -45.284792 10.009000 -0.000000 -61.705700
